# xmcd
#
# Track frame offsets:
#	150
#	17287
#	27256
#	42672
#	58728
#	87461
#	109516
#	118006
#	144015
#
# Disc length: 2341 seconds
#
# Revision: 0
# Processed by: cddbd v1.5.2PL0 Copyright (c) Steve Scherf et al.
# Submitted via: EZCDAudioConverter 3.1.2.1
#
DISCID=6d092309
DTITLE=The Mentulls - Time Flies
DYEAR=1900
DGENRE=
TTITLE0=Time Flies
TTITLE1=Blues In C
TTITLE2=Motorway Of Madness
TTITLE3=I Don't Trust
TTITLE4=State Of Disbelief
TTITLE5=InstruMentull
TTITLE6=The Track With No Name
TTITLE7=What It Is
TTITLE8=After The Rain
EXTD=
EXTT0=
EXTT1=
EXTT2=
EXTT3=
EXTT4=
EXTT5=
EXTT6=
EXTT7=
EXTT8=
PLAYORDER=
